PathFileType	4	(X/Y/Z)	D:\TRACE\spotREDO_2-26-24\spot_justArm_Motion_2_1-platform.trc
DataRate	CameraRate	NumFrames	NumMarkers	Units	OrigDataRate	OrigDataStartFrame	OrigNumFrames
100.00	100.00	      36	5	mm	100.00	1751	      7000
Frame#	Time	Left_Front			Right_Front			Left_Aft			Right_Aft			Post			
		X1	Y1	Z1	X2	Y2	Z2	X3	Y3	Z3	X4	Y4	Z4	X5	Y5	Z5	

1751	17.500	-690.27014	-29.86218	-581.75415	724.46503	-17.31602	-497.33878	-761.66510	31.44763	636.02917	807.63245	37.85507	639.89349	19.03030	579.25684	-1015.03619	
1752	17.510	-689.18811	-28.35582	-581.65643	725.64911	-16.25633	-497.06876	-760.45349	30.22662	636.30139	808.71509	36.54224	640.74768	20.69724	581.47418	-1013.45630	
1753	17.520	-688.11505	-26.99468	-581.05750	726.87897	-15.21709	-496.65579	-759.25848	28.98553	636.78986	809.70959	35.25816	641.03888	21.41981	583.63422	-1011.88812	
1754	17.530	-686.78973	-26.08321	-580.77148	728.09155	-14.09396	-496.40228	-758.15460	27.68622	637.21967	810.79712	33.90884	641.51215	22.60738	585.74365	-1010.17493	
1755	17.540	-685.71924	-24.58801	-580.40845	729.19794	-12.89383	-496.13602	-757.13885	26.47802	637.46771	812.14203	32.68843	641.48248	23.71340	588.07574	-1008.63739	
1756	17.550	-684.60760	-23.32747	-580.17529	730.14722	-11.86681	-496.08365	-755.83911	24.90908	637.99152	813.47888	31.25786	642.27368	24.70081	590.23010	-1006.82391	
1757	17.560	-683.40863	-22.26445	-580.10217	731.17242	-10.50865	-495.82257	-754.83386	23.88901	638.23694	814.31769	29.94220	642.60248	26.10155	592.53406	-1005.25183	
1758	17.570	-682.49414	-20.67574	-579.80640	732.44720	-9.67958	-495.14960	-753.69476	22.29930	638.68951	815.74011	28.80997	643.03680	26.86818	594.75507	-1004.03424	
1759	17.580	-681.24243	-19.58329	-579.33136	733.59064	-8.49772	-494.87100	-752.40729	21.02307	638.96747	816.93805	27.43527	643.32532	28.12148	596.78503	-1002.12463	
1760	17.590	-680.22485	-18.10580	-579.03149	734.41083	-7.27886	-494.80920	-751.52545	19.77528	639.46344	818.11322	26.00949	643.74890	29.44098	599.04572	-1000.82599	
1761	17.600	-679.01489	-16.96665	-578.73059	735.97791	-6.05823	-494.26883	-750.30603	18.42121	639.84760	819.12103	24.78458	644.19598	30.88287	601.30273	-998.95367	
1762	17.610	-677.98529	-15.49111	-578.51215	736.79462	-4.86011	-494.13834	-749.05884	16.95682	640.31573	820.06750	23.30971	644.47675	31.49131	603.66339	-997.69513	
1763	17.620	-676.95544	-14.02434	-578.09644	737.76611	-3.81290	-493.90018	-748.27875	15.48077	640.56177	821.27228	21.97433	644.98358	32.99080	605.79333	-995.80920	
1764	17.630	-675.77771	-13.00065	-577.79156	738.79407	-2.44707	-493.50330	-746.91986	14.06367	641.11182	822.21674	20.25439	645.14111	33.59136	608.24707	-994.17432	
1765	17.640	-674.56964	-11.27867	-577.36700	740.28516	-1.46133	-492.79428	-745.89056	12.67581	641.51520	823.48608	19.12438	645.69501	34.69084	610.66400	-992.40442	
1766	17.650	-673.58502	-9.96646	-577.02191	741.02216	-0.14072	-492.67996	-744.85034	11.34818	641.83734	824.36230	17.75541	646.11639	36.13862	613.22009	-990.12476	
1767	17.660	-672.58435	-8.30712	-576.83429	742.40887	1.07850	-492.23456	-743.69659	9.95285	642.37872	825.53571	16.34024	646.45013	36.86879	615.60242	-988.52454	
1768	17.670	-671.53870	-7.21976	-576.42993	743.22223	2.20792	-492.02792	-742.41840	8.70926	642.69000	826.76147	14.56636	646.82861	37.73485	617.86755	-986.48889	
1769	17.680	-670.25653	-5.74198	-576.11597	744.51166	3.59267	-491.59314	-741.63940	6.94295	643.02222	827.76074	13.56883	647.26917	39.14257	620.22455	-984.36865	
1770	17.690	-669.39984	-4.30033	-575.51727	745.29382	4.82121	-491.30951	-740.71948	5.35227	643.35022	828.56506	11.94922	647.74457	40.05972	622.76019	-982.61206	
1771	17.700	-668.37726	-2.81121	-575.25836	746.36731	5.89832	-490.73410	-739.44275	3.71312	643.67200	829.58087	10.40155	647.76727	40.82733	625.10956	-980.86884	
1772	17.710	-667.58783	-1.48373	-575.01251	747.54486	7.16913	-490.45349	-738.56769	2.57721	644.12604	830.80011	9.10898	648.38696	41.73397	627.38922	-978.97797	
1773	17.720	-666.40997	-0.13677	-574.71350	748.36462	8.37208	-490.10690	-737.40790	1.15153	644.58154	831.61005	7.59243	648.68317	42.70181	629.71509	-977.17316	
1774	17.730	-665.42474	1.27819	-574.16937	749.40204	9.69713	-489.83072	-736.57928	-0.37576	644.93024	832.57513	6.24581	649.07684	43.71515	632.04370	-975.53168	
1775	17.740	-664.41876	2.59515	-573.80597	750.21533	10.62708	-489.42062	-735.46320	-1.65991	645.24438	833.68469	4.55422	649.61823	44.77504	634.41992	-973.48608	
1776	17.750	-663.35822	4.14195	-573.54810	751.42346	12.04438	-489.16513	-734.47913	-3.17448	645.72736	834.60443	3.32468	649.89893	45.64778	636.76428	-971.94812	
1777	17.760	-662.43951	5.39235	-573.21228	752.26263	13.17764	-488.59750	-733.59161	-4.50423	646.00378	835.77008	1.94176	650.29169	46.65129	638.87933	-970.23932	
1778	17.770	-661.56744	6.85204	-572.76605	752.91992	14.48929	-488.34021	-732.63257	-6.01659	646.36700	836.78900	0.74597	650.65588	47.38484	641.16290	-968.67499	
1779	17.780	-660.42133	8.14194	-572.28046	754.20795	15.62848	-487.80765	-731.82794	-7.16538	646.89435	837.46826	-1.39436	650.74298	48.27612	643.44769	-966.94360	
1780	17.790	-659.82611	9.65378	-571.94910	754.86420	16.76022	-487.48904	-730.88312	-8.78081	647.04956	838.36597	-2.53707	651.24719	49.48129	645.79095	-964.97589	
1781	17.800	-658.80231	10.70653	-571.55884	755.71411	18.01789	-487.10895	-729.97003	-10.36928	647.30859	839.29022	-3.99967	651.53455	50.12812	648.15381	-962.94165	
1782	17.810	-658.29358	12.50975	-571.26215	756.97302	18.97392	-486.76129	-728.97723	-11.88106	647.70599	840.11932	-5.59008	651.60980	51.03389	650.49103	-960.97675	
1783	17.820	-657.30652	13.61262	-570.88208	757.61731	20.48569	-486.16074	-728.25793	-13.21711	648.02124	841.10138	-6.73209	652.23883	51.80685	652.81927	-958.83344	
1784	17.830	-656.26501	15.13413	-570.37018	758.20129	21.68589	-486.07541	-727.44373	-14.64673	648.43524	841.82977	-8.33394	652.37939	52.59175	654.96362	-956.69177	
1785	17.840	-655.41980	16.40264	-569.99738	759.16962	22.67021	-485.42548	-726.50793	-16.16620	648.76917	842.49921	-9.85358	652.74963	53.41833	657.31610	-954.69171	
1786	17.850	-655.03253	17.80580	-569.53992	759.85034	23.65692	-485.06259	-725.84131	-17.54312	648.85907	843.51001	-11.16338	653.03296	54.14310	659.62213	-952.65698	
